<?xml version="1.0" encoding="UTF-8" standalone="no"?>
<!DOCTYPE svg PUBLIC "-//W3C//DTD SVG 1.1//EN"
 "http://www.w3.org/Graphics/SVG/1.1/DTD/svg11.dtd">
<!-- Generated by graphviz version 8.1.0 (20230707.0739)
 -->
<!-- Pages: 1 -->
<svg width="1372pt" height="476pt"
 viewBox="0.00 0.00 1371.69 476.00" xmlns="http://www.w3.org/2000/svg" xmlns:xlink="http://www.w3.org/1999/xlink">
<g id="graph0" class="graph" transform="scale(1 1) rotate(0) translate(4 472)">
<polygon fill="white" stroke="none" points="-4,4 -4,-472 1367.69,-472 1367.69,4 -4,4"/>
<!-- [root] aws_instance.web (expand) -->
<g id="node1" class="node">
<title>[root] aws_instance.web (expand)</title>
<polygon fill="none" stroke="black" points="726.33,-324 609.08,-324 609.08,-288 726.33,-288 726.33,-324"/>
<text text-anchor="middle" x="667.7" y="-300.57" font-family="Times New Roman,serif" font-size="14.00">aws_instance.web</text>
</g>
<!-- [root] aws_key_pair.deployer (expand) -->
<g id="node2" class="node">
<title>[root] aws_key_pair.deployer (expand)</title>
<polygon fill="none" stroke="black" points="857.58,-252 711.83,-252 711.83,-216 857.58,-216 857.58,-252"/>
<text text-anchor="middle" x="784.7" y="-228.57" font-family="Times New Roman,serif" font-size="14.00">aws_key_pair.deployer</text>
</g>
<!-- [root] aws_instance.web (expand)&#45;&gt;[root] aws_key_pair.deployer (expand) -->
<g id="edge1" class="edge">
<title>[root] aws_instance.web (expand)&#45;&gt;[root] aws_key_pair.deployer (expand)</title>
<path fill="none" stroke="black" d="M696.92,-287.52C711.97,-278.51 730.51,-267.42 746.66,-257.76"/>
<polygon fill="black" stroke="black" points="748.07,-260.4 754.85,-252.26 744.47,-254.39 748.07,-260.4"/>
</g>
<!-- [root] aws_security_group.allow_ssh (expand) -->
<g id="node3" class="node">
<title>[root] aws_security_group.allow_ssh (expand)</title>
<polygon fill="none" stroke="black" points="693.95,-252 505.45,-252 505.45,-216 693.95,-216 693.95,-252"/>
<text text-anchor="middle" x="599.7" y="-228.57" font-family="Times New Roman,serif" font-size="14.00">aws_security_group.allow_ssh</text>
</g>
<!-- [root] aws_instance.web (expand)&#45;&gt;[root] aws_security_group.allow_ssh (expand) -->
<g id="edge2" class="edge">
<title>[root] aws_instance.web (expand)&#45;&gt;[root] aws_security_group.allow_ssh (expand)</title>
<path fill="none" stroke="black" d="M650.89,-287.7C642.74,-279.3 632.8,-269.07 623.85,-259.86"/>
<polygon fill="black" stroke="black" points="626.79,-257.84 617.32,-253.1 621.77,-262.72 626.79,-257.84"/>
</g>
<!-- [root] data.local_file.pvt_key (expand) -->
<g id="node4" class="node">
<title>[root] data.local_file.pvt_key (expand)</title>
<polygon fill="none" stroke="black" points="1046.7,-252 904.7,-252 904.7,-216 1046.7,-216 1046.7,-252"/>
<text text-anchor="middle" x="975.7" y="-228.57" font-family="Times New Roman,serif" font-size="14.00">data.local_file.pvt_key</text>
</g>
<!-- [root] aws_instance.web (expand)&#45;&gt;[root] data.local_file.pvt_key (expand) -->
<g id="edge3" class="edge">
<title>[root] aws_instance.web (expand)&#45;&gt;[root] data.local_file.pvt_key (expand)</title>
<path fill="none" stroke="black" d="M726.5,-289.97C729.27,-289.29 732.01,-288.64 734.7,-288 787.49,-275.5 847.03,-262.4 893.72,-252.35"/>
<polygon fill="black" stroke="black" points="894.34,-255.58 903.38,-250.06 892.87,-248.74 894.34,-255.58"/>
</g>
<!-- [root] var.ami_id -->
<g id="node10" class="node">
<title>[root] var.ami_id</title>
<polygon fill="none" stroke="black" points="480.95,-252 412.45,-252 412.45,-216 486.95,-216 486.95,-246 480.95,-252"/>
<polyline fill="none" stroke="black" points="480.95,-252 480.95,-246"/>
<polyline fill="none" stroke="black" points="486.95,-246 480.95,-246"/>
<text text-anchor="middle" x="449.7" y="-228.57" font-family="Times New Roman,serif" font-size="14.00">var.ami_id</text>
</g>
<!-- [root] aws_instance.web (expand)&#45;&gt;[root] var.ami_id -->
<g id="edge4" class="edge">
<title>[root] aws_instance.web (expand)&#45;&gt;[root] var.ami_id</title>
<path fill="none" stroke="black" d="M608.92,-287.52C578.29,-278.24 540.01,-266.38 497.63,-252.24"/>
<polygon fill="black" stroke="black" points="498.95,-248.66 488.36,-248.79 496.72,-255.29 498.95,-248.66"/>
</g>
<!-- [root] provider[&quot;registry.terraform.io/hashicorp/aws&quot;] -->
<g id="node6" class="node">
<title>[root] provider[&quot;registry.terraform.io/hashicorp/aws&quot;]</title>
<polygon fill="none" stroke="black" points="570.7,-180 307.95,-162 570.7,-144 833.45,-162 570.7,-180"/>
<text text-anchor="middle" x="570.7" y="-156.57" font-family="Times New Roman,serif" font-size="14.00">provider[&quot;registry.terraform.io/hashicorp/aws&quot;]</text>
</g>
<!-- [root] aws_key_pair.deployer (expand)&#45;&gt;[root] provider[&quot;registry.terraform.io/hashicorp/aws&quot;] -->
<g id="edge5" class="edge">
<title>[root] aws_key_pair.deployer (expand)&#45;&gt;[root] provider[&quot;registry.terraform.io/hashicorp/aws&quot;]</title>
<path fill="none" stroke="black" d="M731.25,-215.52C698.86,-204.92 657.64,-191.44 625.07,-180.79"/>
<polygon fill="black" stroke="black" points="626.42,-177.22 615.83,-177.43 624.24,-183.87 626.42,-177.22"/>
</g>
<!-- [root] tls_private_key.mykey (expand) -->
<g id="node9" class="node">
<title>[root] tls_private_key.mykey (expand)</title>
<polygon fill="none" stroke="black" points="811.33,-108 670.08,-108 670.08,-72 811.33,-72 811.33,-108"/>
<text text-anchor="middle" x="740.7" y="-84.58" font-family="Times New Roman,serif" font-size="14.00">tls_private_key.mykey</text>
</g>
<!-- [root] aws_key_pair.deployer (expand)&#45;&gt;[root] tls_private_key.mykey (expand) -->
<g id="edge6" class="edge">
<title>[root] aws_key_pair.deployer (expand)&#45;&gt;[root] tls_private_key.mykey (expand)</title>
<path fill="none" stroke="black" d="M812.34,-215.54C824.03,-206.51 836.37,-194.35 842.7,-180 849.15,-165.36 851.01,-157.68 842.7,-144 834.75,-130.9 822.39,-120.9 808.98,-113.3"/>
<polygon fill="black" stroke="black" points="811.06,-109.92 800.58,-108.42 807.84,-116.13 811.06,-109.92"/>
</g>
<!-- [root] aws_security_group.allow_ssh (expand)&#45;&gt;[root] provider[&quot;registry.terraform.io/hashicorp/aws&quot;] -->
<g id="edge7" class="edge">
<title>[root] aws_security_group.allow_ssh (expand)&#45;&gt;[root] provider[&quot;registry.terraform.io/hashicorp/aws&quot;]</title>
<path fill="none" stroke="black" d="M592.53,-215.7C589.29,-207.87 585.38,-198.44 581.77,-189.73"/>
<polygon fill="black" stroke="black" points="584.65,-188.52 577.59,-180.62 578.18,-191.2 584.65,-188.52"/>
</g>
<!-- [root] local_file.private_key (expand) -->
<g id="node5" class="node">
<title>[root] local_file.private_key (expand)</title>
<polygon fill="none" stroke="black" points="1042.95,-180 908.45,-180 908.45,-144 1042.95,-144 1042.95,-180"/>
<text text-anchor="middle" x="975.7" y="-156.57" font-family="Times New Roman,serif" font-size="14.00">local_file.private_key</text>
</g>
<!-- [root] data.local_file.pvt_key (expand)&#45;&gt;[root] local_file.private_key (expand) -->
<g id="edge8" class="edge">
<title>[root] data.local_file.pvt_key (expand)&#45;&gt;[root] local_file.private_key (expand)</title>
<path fill="none" stroke="black" d="M975.7,-215.7C975.7,-208.24 975.7,-199.32 975.7,-190.97"/>
<polygon fill="black" stroke="black" points="979.2,-191.1 975.7,-181.1 972.2,-191.1 979.2,-191.1"/>
</g>
<!-- [root] provider[&quot;registry.terraform.io/hashicorp/local&quot;] -->
<g id="node7" class="node">
<title>[root] provider[&quot;registry.terraform.io/hashicorp/local&quot;]</title>
<polygon fill="none" stroke="black" points="1096.7,-108 829.72,-90 1096.7,-72 1363.69,-90 1096.7,-108"/>
<text text-anchor="middle" x="1096.7" y="-84.58" font-family="Times New Roman,serif" font-size="14.00">provider[&quot;registry.terraform.io/hashicorp/local&quot;]</text>
</g>
<!-- [root] local_file.private_key (expand)&#45;&gt;[root] provider[&quot;registry.terraform.io/hashicorp/local&quot;] -->
<g id="edge9" class="edge">
<title>[root] local_file.private_key (expand)&#45;&gt;[root] provider[&quot;registry.terraform.io/hashicorp/local&quot;]</title>
<path fill="none" stroke="black" d="M1005.92,-143.52C1022.46,-133.95 1043.06,-122.03 1060.46,-111.97"/>
<polygon fill="black" stroke="black" points="1061.84,-114.63 1068.75,-106.59 1058.34,-108.57 1061.84,-114.63"/>
</g>
<!-- [root] local_file.private_key (expand)&#45;&gt;[root] tls_private_key.mykey (expand) -->
<g id="edge10" class="edge">
<title>[root] local_file.private_key (expand)&#45;&gt;[root] tls_private_key.mykey (expand)</title>
<path fill="none" stroke="black" d="M917.01,-143.52C884.36,-133.79 843.55,-121.64 809.42,-111.47"/>
<polygon fill="black" stroke="black" points="810.64,-107.88 800.05,-108.38 808.64,-114.59 810.64,-107.88"/>
</g>
<!-- [root] provider[&quot;registry.terraform.io/hashicorp/tls&quot;] -->
<g id="node8" class="node">
<title>[root] provider[&quot;registry.terraform.io/hashicorp/tls&quot;]</title>
<polygon fill="none" stroke="black" points="740.7,-36 486.42,-18 740.7,0 994.98,-18 740.7,-36"/>
<text text-anchor="middle" x="740.7" y="-12.58" font-family="Times New Roman,serif" font-size="14.00">provider[&quot;registry.terraform.io/hashicorp/tls&quot;]</text>
</g>
<!-- [root] tls_private_key.mykey (expand)&#45;&gt;[root] provider[&quot;registry.terraform.io/hashicorp/tls&quot;] -->
<g id="edge17" class="edge">
<title>[root] tls_private_key.mykey (expand)&#45;&gt;[root] provider[&quot;registry.terraform.io/hashicorp/tls&quot;]</title>
<path fill="none" stroke="black" d="M740.7,-71.7C740.7,-64.24 740.7,-55.32 740.7,-46.97"/>
<polygon fill="black" stroke="black" points="744.2,-47.1 740.7,-37.1 737.2,-47.1 744.2,-47.1"/>
</g>
<!-- [root] provider[&quot;registry.terraform.io/hashicorp/aws&quot;] (close) -->
<g id="node11" class="node">
<title>[root] provider[&quot;registry.terraform.io/hashicorp/aws&quot;] (close)</title>
<ellipse fill="none" stroke="black" cx="718.7" cy="-378" rx="237.69" ry="18"/>
<text text-anchor="middle" x="718.7" y="-372.57" font-family="Times New Roman,serif" font-size="14.00">[root] provider[&quot;registry.terraform.io/hashicorp/aws&quot;] (close)</text>
</g>
<!-- [root] provider[&quot;registry.terraform.io/hashicorp/aws&quot;] (close)&#45;&gt;[root] aws_instance.web (expand) -->
<g id="edge11" class="edge">
<title>[root] provider[&quot;registry.terraform.io/hashicorp/aws&quot;] (close)&#45;&gt;[root] aws_instance.web (expand)</title>
<path fill="none" stroke="black" d="M706.09,-359.7C700.23,-351.64 693.12,-341.89 686.63,-332.98"/>
<polygon fill="black" stroke="black" points="688.88,-331.13 680.16,-325.1 683.22,-335.25 688.88,-331.13"/>
</g>
<!-- [root] provider[&quot;registry.terraform.io/hashicorp/local&quot;] (close) -->
<g id="node12" class="node">
<title>[root] provider[&quot;registry.terraform.io/hashicorp/local&quot;] (close)</title>
<ellipse fill="none" stroke="black" cx="984.7" cy="-306" rx="240.68" ry="18"/>
<text text-anchor="middle" x="984.7" y="-300.57" font-family="Times New Roman,serif" font-size="14.00">[root] provider[&quot;registry.terraform.io/hashicorp/local&quot;] (close)</text>
</g>
<!-- [root] provider[&quot;registry.terraform.io/hashicorp/local&quot;] (close)&#45;&gt;[root] data.local_file.pvt_key (expand) -->
<g id="edge12" class="edge">
<title>[root] provider[&quot;registry.terraform.io/hashicorp/local&quot;] (close)&#45;&gt;[root] data.local_file.pvt_key (expand)</title>
<path fill="none" stroke="black" d="M982.48,-287.7C981.52,-280.24 980.37,-271.32 979.3,-262.97"/>
<polygon fill="black" stroke="black" points="982.65,-262.58 977.9,-253.1 975.7,-263.47 982.65,-262.58"/>
</g>
<!-- [root] provider[&quot;registry.terraform.io/hashicorp/tls&quot;] (close) -->
<g id="node13" class="node">
<title>[root] provider[&quot;registry.terraform.io/hashicorp/tls&quot;] (close)</title>
<ellipse fill="none" stroke="black" cx="231.7" cy="-378" rx="231.7" ry="18"/>
<text text-anchor="middle" x="231.7" y="-372.57" font-family="Times New Roman,serif" font-size="14.00">[root] provider[&quot;registry.terraform.io/hashicorp/tls&quot;] (close)</text>
</g>
<!-- [root] provider[&quot;registry.terraform.io/hashicorp/tls&quot;] (close)&#45;&gt;[root] tls_private_key.mykey (expand) -->
<g id="edge13" class="edge">
<title>[root] provider[&quot;registry.terraform.io/hashicorp/tls&quot;] (close)&#45;&gt;[root] tls_private_key.mykey (expand)</title>
<path fill="none" stroke="black" d="M230.79,-359.6C229.55,-315.69 232.99,-199.92 298.7,-144 351.32,-99.22 546.04,-91.14 658.71,-90.34"/>
<polygon fill="black" stroke="black" points="658.7,-93.83 668.68,-90.28 658.66,-86.83 658.7,-93.83"/>
</g>
<!-- [root] root -->
<g id="node14" class="node">
<title>[root] root</title>
<ellipse fill="none" stroke="black" cx="718.7" cy="-450" rx="50.07" ry="18"/>
<text text-anchor="middle" x="718.7" y="-444.57" font-family="Times New Roman,serif" font-size="14.00">[root] root</text>
</g>
<!-- [root] root&#45;&gt;[root] provider[&quot;registry.terraform.io/hashicorp/aws&quot;] (close) -->
<g id="edge14" class="edge">
<title>[root] root&#45;&gt;[root] provider[&quot;registry.terraform.io/hashicorp/aws&quot;] (close)</title>
<path fill="none" stroke="black" d="M718.7,-431.7C718.7,-424.24 718.7,-415.32 718.7,-406.97"/>
<polygon fill="black" stroke="black" points="722.2,-407.1 718.7,-397.1 715.2,-407.1 722.2,-407.1"/>
</g>
<!-- [root] root&#45;&gt;[root] provider[&quot;registry.terraform.io/hashicorp/local&quot;] (close) -->
<g id="edge15" class="edge">
<title>[root] root&#45;&gt;[root] provider[&quot;registry.terraform.io/hashicorp/local&quot;] (close)</title>
<path fill="none" stroke="black" d="M767.18,-444.79C831,-438.24 938.31,-423.42 965.7,-396 981.48,-380.21 985.63,-354.74 986.18,-335.09"/>
<polygon fill="black" stroke="black" points="989.68,-335.3 986.15,-325.31 982.68,-335.31 989.68,-335.3"/>
</g>
<!-- [root] root&#45;&gt;[root] provider[&quot;registry.terraform.io/hashicorp/tls&quot;] (close) -->
<g id="edge16" class="edge">
<title>[root] root&#45;&gt;[root] provider[&quot;registry.terraform.io/hashicorp/tls&quot;] (close)</title>
<path fill="none" stroke="black" d="M672.88,-442.41C599.59,-431.88 453.66,-410.9 349.71,-395.96"/>
<polygon fill="black" stroke="black" points="350.24,-392.36 339.84,-394.4 349.24,-399.29 350.24,-392.36"/>
</g>
</g>
</svg>
